<svg width="169" height="16" viewBox="0 0 169 16" fill="none" xmlns="http://www.w3.org/2000/svg">
<g id="Group 8">
<circle id="Ellipse 3" cx="7" cy="7" r="7" transform="matrix(1 0 0 -1 49 16)" fill="#D9D9D9" fill-opacity="0.56"/>
<ellipse id="Ellipse 4" cx="8" cy="7" rx="8" ry="7" transform="matrix(1 0 0 -1 0 16)" fill="#D9D9D9" fill-opacity="0.56"/>
<circle id="Ellipse 5" cx="7" cy="7" r="7" transform="matrix(1 0 0 -1 26 16)" fill="#D9D9D9" fill-opacity="0.56"/>
<circle id="Ellipse 7" cx="8" cy="8" r="8" transform="matrix(1 0 0 -1 78 16)" fill="#E2E2E2"/>
<circle id="Ellipse 8" cx="7" cy="7" r="7" transform="matrix(1 0 0 -1 104 16)" fill="#D9D9D9" fill-opacity="0.56"/>
<circle id="Ellipse 9" cx="7" cy="7" r="7" transform="matrix(1 0 0 -1 130 16)" fill="#D9D9D9" fill-opacity="0.56"/>
<circle id="Ellipse 10" cx="7" cy="7" r="7" transform="matrix(1 0 0 -1 155 16)" fill="#D9D9D9" fill-opacity="0.56"/>
</g>
</svg>
