<svg width="83" height="16" viewBox="0 0 83 16" fill="none" xmlns="http://www.w3.org/2000/svg">
<g id="Group 4">
<g id="&#240;&#159;&#166;&#134; icon &#34;medium&#34;">
<path id="Vector" fill-rule="evenodd" clip-rule="evenodd" d="M2.07938 4.33418C2.1013 4.14493 2.01874 3.95824 1.858 3.83122L0.221382 2.09908V1.84055H5.30513L9.23448 9.40742L12.6889 1.84055H17.5352V2.09908L16.1353 3.27758C16.0148 3.35841 15.9549 3.49121 15.9797 3.62272V12.2821C15.9549 12.413 16.0148 12.5458 16.1353 12.6266L17.5023 13.8051V14.0637H10.6256V13.8051L12.0423 12.5978C12.1811 12.4759 12.1811 12.4399 12.1811 12.2533V5.25414L8.24374 14.0354H7.71184L3.12711 5.25414V11.1396C3.08912 11.3865 3.18264 11.6361 3.38064 11.8144L5.22257 13.7763V14.0354H0V13.7763L1.84193 11.8144C2.0392 11.6355 2.12688 11.3846 2.07938 11.1396V4.33418Z" fill="white"/>
</g>
<g id="&#240;&#159;&#166;&#134; icon &#34;facebook&#34;">
<path id="Vector_2" d="M51.4366 7.99926C51.4366 3.74638 47.5092 0.300873 42.669 0.300873C37.8254 0.300873 33.9014 3.74638 33.9014 7.99926C33.9014 11.8408 37.1065 15.026 41.299 15.6029V10.2251H39.0726V7.99974H41.299V6.30273C41.299 4.3738 42.606 3.30854 44.6094 3.30854C45.5689 3.30854 46.5733 3.45865 46.5733 3.45865V5.35294H45.4658C44.3787 5.35294 44.0389 5.94716 44.0389 6.55581V7.99926H46.4703L46.0796 10.2246H44.0389V15.6024C48.2282 15.0255 51.4366 11.8403 51.4366 7.99878V7.99926Z" fill="white"/>
</g>
<g id="&#240;&#159;&#166;&#134; icon &#34;instagram fill icon&#34;">
<path id="Vector_3" fill-rule="evenodd" clip-rule="evenodd" d="M70.6178 0.347063C71.553 0.309425 71.8511 0.300873 74.2324 0.300873C76.6143 0.300873 76.9119 0.309852 77.8466 0.347063C78.7804 0.384274 79.418 0.51472 79.9757 0.705038C80.5607 0.898414 81.0905 1.2014 81.5285 1.59292C81.9745 1.97744 82.3196 2.44275 82.5398 2.95639C82.7565 3.44609 82.9046 4.00594 82.9474 4.82538C82.9903 5.64655 83.0001 5.90829 83.0001 7.99926C83.0001 10.0902 82.9899 10.352 82.9474 11.1732C82.905 11.9926 82.7565 12.5524 82.5398 13.0421C82.3157 13.5481 82.0156 13.9779 81.5285 14.4056C81.0906 14.7971 80.5607 15.1002 79.9757 15.2935C79.418 15.4838 78.7804 15.6138 77.8472 15.6515C76.9119 15.6891 76.6138 15.6976 74.2324 15.6976C71.8511 15.6976 71.553 15.6887 70.6178 15.6515C69.6845 15.6142 69.0469 15.4838 68.4892 15.2935C67.913 15.0968 67.4234 14.8333 66.9363 14.4056C66.4904 14.0211 66.1453 13.5557 65.9251 13.0421C65.7084 12.5524 65.5603 11.9926 65.5174 11.1732C65.4746 10.352 65.4648 10.0906 65.4648 7.99926C65.4648 5.90787 65.4751 5.64655 65.5174 4.82582C65.5598 4.00594 65.7084 3.44609 65.9251 2.95639C66.1454 2.44278 66.4904 1.9775 66.9363 1.59292C67.3743 1.20133 67.9042 0.898324 68.4892 0.705038C69.0469 0.51472 69.6845 0.384701 70.6178 0.347063ZM77.7755 1.73277C76.851 1.69599 76.5734 1.68786 74.2324 1.68786C71.8915 1.68786 71.6139 1.69599 70.6894 1.73277C69.8345 1.76699 69.3703 1.8923 69.0615 1.99794C68.6524 2.13736 68.3601 2.30416 68.0532 2.5736C67.7469 2.84305 67.5564 3.09966 67.3976 3.45892C67.2773 3.73008 67.1346 4.13766 67.0956 4.88826C67.0537 5.70001 67.0445 5.94379 67.0445 7.99926C67.0445 10.0547 67.0537 10.2985 67.0956 11.1102C67.1346 11.8608 67.2773 12.2684 67.3976 12.5396C67.5381 12.874 67.7621 13.1765 68.0532 13.4249C68.3361 13.6805 68.6807 13.8773 69.0615 14.0006C69.3703 14.1062 69.8345 14.2315 70.6894 14.2657C71.6139 14.3026 71.891 14.3107 74.2324 14.3107C76.5739 14.3107 76.851 14.3026 77.7755 14.2657C78.6304 14.2315 79.0946 14.1062 79.4034 14.0006C79.8126 13.8612 80.1048 13.6944 80.4117 13.4249C80.7028 13.1766 80.9268 12.874 81.0673 12.5396C81.1876 12.2684 81.3303 11.8608 81.3693 11.1102C81.4112 10.2985 81.4205 10.0547 81.4205 7.99926C81.4205 5.94379 81.4112 5.70001 81.3693 4.88826C81.3303 4.13766 81.1876 3.73008 81.0673 3.45892C80.9085 3.09966 80.7186 2.84305 80.4117 2.5736C80.1048 2.30459 79.8126 2.13736 79.4034 1.99794C79.0946 1.8923 78.6304 1.76699 77.7755 1.73277ZM73.113 10.3724C73.4679 10.5015 73.8483 10.5679 74.2324 10.5679C75.0084 10.5679 75.7524 10.2973 76.301 9.81559C76.8497 9.33388 77.158 8.6805 77.158 7.99926C77.158 7.31802 76.8497 6.66464 76.301 6.18292C75.7524 5.70119 75.0084 5.43056 74.2324 5.43056C73.8483 5.43056 73.4679 5.497 73.113 5.62609C72.758 5.75518 72.4355 5.94438 72.1639 6.18292C71.8922 6.42144 71.6767 6.7046 71.5297 7.01624C71.3827 7.32789 71.307 7.66193 71.307 7.99926C71.307 8.33659 71.3827 8.67063 71.5297 8.98227C71.6767 9.29392 71.8922 9.57708 72.1639 9.81559C72.4355 10.0541 72.758 10.2433 73.113 10.3724ZM71.0459 5.20125C71.891 4.45918 73.0373 4.04228 74.2324 4.04228C75.4277 4.04228 76.574 4.45918 77.4191 5.20125C78.2642 5.94333 78.739 6.94983 78.739 7.99926C78.739 9.04869 78.2642 10.0551 77.4191 10.7973C76.574 11.5393 75.4277 11.9562 74.2324 11.9562C73.0373 11.9562 71.891 11.5393 71.0459 10.7973C70.2007 10.0551 69.7259 9.04869 69.7259 7.99926C69.7259 6.94983 70.2007 5.94333 71.0459 5.20125ZM79.7383 4.63183C79.938 4.45641 80.0502 4.2185 80.0502 3.97043C80.0502 3.72236 79.938 3.48445 79.7383 3.30904C79.5384 3.13363 79.2675 3.03508 78.985 3.03508C78.7025 3.03508 78.4315 3.13363 78.2318 3.30904C78.0319 3.48445 77.9197 3.72236 77.9197 3.97043C77.9197 4.2185 78.0319 4.45641 78.2318 4.63183C78.4315 4.80724 78.7025 4.90579 78.985 4.90579C79.2675 4.90579 79.5384 4.80724 79.7383 4.63183Z" fill="white"/>
</g>
</g>
</svg>
