<svg width="50" height="16" viewBox="0 0 50 16" fill="none" xmlns="http://www.w3.org/2000/svg">
<g id="Group 4">
<g id="&#240;&#159;&#166;&#134; icon &#34;facebook&#34;">
<path id="Vector" d="M18.4366 7.99926C18.4366 3.74638 14.5092 0.300873 9.66897 0.300873C4.82542 0.300873 0.901367 3.74638 0.901367 7.99926C0.901367 11.8408 4.10648 15.026 8.29903 15.6029V10.2251H6.07261V7.99974H8.29903V6.30273C8.29903 4.3738 9.60596 3.30854 11.6094 3.30854C12.5689 3.30854 13.5733 3.45865 13.5733 3.45865V5.35294H12.4658C11.3787 5.35294 11.0389 5.94716 11.0389 6.55581V7.99926H13.4703L13.0796 10.2246H11.0389V15.6024C15.2282 15.0255 18.4366 11.8403 18.4366 7.99878V7.99926Z" fill="white"/>
</g>
<g id="&#240;&#159;&#166;&#134; icon &#34;instagram fill icon&#34;">
<path id="Vector_2" fill-rule="evenodd" clip-rule="evenodd" d="M37.6176 0.347063C38.5529 0.309425 38.851 0.300873 41.2323 0.300873C43.6142 0.300873 43.9118 0.309852 44.8465 0.347063C45.7802 0.384274 46.4179 0.51472 46.9756 0.705038C47.5605 0.898414 48.0904 1.2014 48.5284 1.59292C48.9744 1.97744 49.3195 2.44275 49.5396 2.95639C49.7564 3.44609 49.9044 4.00594 49.9473 4.82538C49.9902 5.64655 49.9999 5.90829 49.9999 7.99926C49.9999 10.0902 49.9897 10.352 49.9473 11.1732C49.9049 11.9926 49.7564 12.5524 49.5396 13.0421C49.3156 13.5481 49.0155 13.9779 48.5284 14.4056C48.0905 14.7971 47.5605 15.1002 46.9756 15.2935C46.4179 15.4838 45.7802 15.6138 44.8471 15.6515C43.9118 15.6891 43.6137 15.6976 41.2323 15.6976C38.851 15.6976 38.5529 15.6887 37.6176 15.6515C36.6844 15.6142 36.0468 15.4838 35.4891 15.2935C34.9128 15.0968 34.4233 14.8333 33.9362 14.4056C33.4902 14.0211 33.1452 13.5557 32.925 13.0421C32.7083 12.5524 32.5602 11.9926 32.5173 11.1732C32.4745 10.352 32.4647 10.0906 32.4647 7.99926C32.4647 5.90787 32.4749 5.64655 32.5173 4.82582C32.5597 4.00594 32.7083 3.44609 32.925 2.95639C33.1453 2.44278 33.4903 1.9775 33.9362 1.59292C34.3741 1.20133 34.9041 0.898324 35.4891 0.705038C36.0468 0.51472 36.6844 0.384701 37.6176 0.347063ZM44.7754 1.73277C43.8509 1.69599 43.5733 1.68786 41.2323 1.68786C38.8914 1.68786 38.6137 1.69599 37.6892 1.73277C36.8344 1.76699 36.3702 1.8923 36.0614 1.99794C35.6522 2.13736 35.36 2.30416 35.0531 2.5736C34.7467 2.84305 34.5563 3.09966 34.3975 3.45892C34.2772 3.73008 34.1345 4.13766 34.0955 4.88826C34.0536 5.70001 34.0443 5.94379 34.0443 7.99926C34.0443 10.0547 34.0536 10.2985 34.0955 11.1102C34.1345 11.8608 34.2772 12.2684 34.3975 12.5396C34.5379 12.874 34.762 13.1765 35.0531 13.4249C35.336 13.6805 35.6805 13.8773 36.0614 14.0006C36.3702 14.1062 36.8344 14.2315 37.6892 14.2657C38.6137 14.3026 38.8909 14.3107 41.2323 14.3107C43.5738 14.3107 43.8509 14.3026 44.7754 14.2657C45.6302 14.2315 46.0944 14.1062 46.4033 14.0006C46.8124 13.8612 47.1047 13.6944 47.4116 13.4249C47.7027 13.1766 47.9267 12.874 48.0672 12.5396C48.1875 12.2684 48.3302 11.8608 48.3692 11.1102C48.4111 10.2985 48.4203 10.0547 48.4203 7.99926C48.4203 5.94379 48.4111 5.70001 48.3692 4.88826C48.3302 4.13766 48.1875 3.73008 48.0672 3.45892C47.9084 3.09966 47.7184 2.84305 47.4116 2.5736C47.1047 2.30459 46.8124 2.13736 46.4033 1.99794C46.0944 1.8923 45.6302 1.76699 44.7754 1.73277ZM40.1129 10.3724C40.4678 10.5015 40.8481 10.5679 41.2323 10.5679C42.0083 10.5679 42.7523 10.2973 43.3009 9.81559C43.8496 9.33388 44.1578 8.6805 44.1578 7.99926C44.1578 7.31802 43.8496 6.66464 43.3009 6.18292C42.7523 5.70119 42.0083 5.43056 41.2323 5.43056C40.8481 5.43056 40.4678 5.497 40.1129 5.62609C39.7579 5.75518 39.4354 5.94438 39.1637 6.18292C38.8921 6.42144 38.6766 6.7046 38.5296 7.01624C38.3826 7.32789 38.3069 7.66193 38.3069 7.99926C38.3069 8.33659 38.3826 8.67063 38.5296 8.98227C38.6766 9.29392 38.8921 9.57708 39.1637 9.81559C39.4354 10.0541 39.7579 10.2433 40.1129 10.3724ZM38.0457 5.20125C38.8909 4.45918 40.0371 4.04228 41.2323 4.04228C42.4276 4.04228 43.5738 4.45918 44.419 5.20125C45.2641 5.94333 45.7389 6.94983 45.7389 7.99926C45.7389 9.04869 45.2641 10.0551 44.419 10.7973C43.5738 11.5393 42.4276 11.9562 41.2323 11.9562C40.0371 11.9562 38.8909 11.5393 38.0457 10.7973C37.2006 10.0551 36.7258 9.04869 36.7258 7.99926C36.7258 6.94983 37.2006 5.94333 38.0457 5.20125ZM46.7381 4.63183C46.9379 4.45641 47.0501 4.2185 47.0501 3.97043C47.0501 3.72236 46.9379 3.48445 46.7381 3.30904C46.5383 3.13363 46.2674 3.03508 45.9848 3.03508C45.7024 3.03508 45.4314 3.13363 45.2316 3.30904C45.0318 3.48445 44.9196 3.72236 44.9196 3.97043C44.9196 4.2185 45.0318 4.45641 45.2316 4.63183C45.4314 4.80724 45.7024 4.90579 45.9848 4.90579C46.2674 4.90579 46.5383 4.80724 46.7381 4.63183Z" fill="white"/>
</g>
</g>
</svg>
